<?xml version="1.0" encoding="iso-8859-1"?>
<!-- Generator: Adobe Illustrator 16.0.0, SVG Export Plug-In . SVG Version: 6.00 Build 0)  -->
<!DOCTYPE svg PUBLIC "-//W3C//DTD SVG 1.1//EN" "http://www.w3.org/Graphics/SVG/1.1/DTD/svg11.dtd">
<svg xmlns="http://www.w3.org/2000/svg" xmlns:xlink="http://www.w3.org/1999/xlink" version="1.1" id="Capa_1" x="0px" y="0px" width="512px" height="512px" viewBox="0 0 369.949 369.949" style="enable-background:new 0 0 369.949 369.949;" xml:space="preserve">
<g>
	<g>
		<path d="M184.975,0C82.824,0,0.003,82.824,0.003,184.978c0,102.147,82.821,184.972,184.972,184.972    c102.153,0,184.972-82.824,184.972-184.972C369.946,82.824,287.128,0,184.975,0z M184.975,353.515    c-92.942,0-168.536-75.613-168.536-168.537c0-92.93,75.594-168.537,168.536-168.537c92.931,0,168.53,75.606,168.53,168.537    C353.505,277.901,277.905,353.515,184.975,353.515z" fill="#28292d"/>
		<path d="M190.775,172.758H328.22c-6.233-73.619-68.053-131.649-143.245-131.649c-79.326,0-143.866,64.54-143.866,143.869    s64.54,143.881,143.866,143.881c74.447,0,135.864-56.865,143.143-129.439H190.775l10.568,10.58c5.206,5.207,5.206,13.644,0,18.844    c-5.212,5.212-13.646,5.212-18.852,0l-33.314-33.32c-0.015-0.007-0.015-0.019-0.027-0.019l-9.413-9.415l9.413-9.413    c0.012,0,0.012-0.012,0.027-0.018l31.093-31.102c2.609-2.605,6.02-3.906,9.427-3.906c3.408,0,6.818,1.3,9.425,3.906    c5.212,5.207,5.212,13.644,0,18.847L190.775,172.758z" fill="#28292d"/>
	</g>
</g>
<g>
</g>
<g>
</g>
<g>
</g>
<g>
</g>
<g>
</g>
<g>
</g>
<g>
</g>
<g>
</g>
<g>
</g>
<g>
</g>
<g>
</g>
<g>
</g>
<g>
</g>
<g>
</g>
<g>
</g>
</svg>
